<svg version="1.0" xmlns="http://www.w3.org/2000/svg"
 width="150.000000pt" height="150.000000pt" viewBox="0 0 150.000000 150.000000"
 preserveAspectRatio="xMidYMid meet">

<g transform="translate(0.000000,150.000000) scale(0.100000,-0.100000)"
fill="#000000" stroke="none">
<path d="M200 1489 c-32 -13 -68 -47 -86 -81 -22 -42 -21 -1276 1 -1317 20
-40 70 -79 108 -86 18 -3 262 -5 544 -3 499 3 512 4 539 24 15 11 37 33 48 48
20 26 21 43 26 404 3 207 3 499 0 649 -6 299 -5 296 -74 347 -27 21 -39 21
-554 23 -337 1 -536 -2 -552 -8z m220 -241 c0 -118 3 -145 17 -160 15 -17 38
-18 301 -18 252 0 288 2 304 17 16 14 18 33 18 160 l0 144 97 -3 c93 -3 98 -4
110 -28 9 -18 13 -87 13 -237 l0 -213 -541 0 -540 0 3 223 c2 172 6 228 17
240 11 14 32 17 107 17 l94 0 0 -142z m530 37 l0 -105 -210 0 -210 0 0 105 0
105 210 0 210 0 0 -105z m328 -813 c-2 -261 -6 -332 -17 -345 -12 -15 -61 -17
-521 -17 -460 0 -509 2 -521 17 -11 13 -15 84 -17 345 l-3 328 541 0 541 0 -3
-328z"/>
</g>
</svg>